# xmcd CD database file
#
# Track frame offsets:
#	150
#	24942
#	45717
#	65258
#	80107
#	103463
#	115872
#	135198
#	152458
#	177960
#
# Disc length: 2776 seconds
#
# Revision: 1
# Processed by: cddbd v1.5.1PL2 Copyright (c) Steve Scherf et al.
# Submitted via: CDex 1.51
#
DISCID=790ad60a
DTITLE=JJ Johnson - DIAL J.J.5
DYEAR=1957
DGENRE=Jazz
TTITLE0=TEA POT
TTITLE1=BARBADOS
TTITLE2=IN A LITTLE PROVINCIAL TOWN
TTITLE3=CETTE CHOSE
TTITLE4=BLUE HAZE
TTITLE5=LOVE IS HERE TO STAY
TTITLE6=SO SORRY PLEASE
TTITLE7=IT COULD HAPPEN TO YOU
TTITLE8=BIRD SONG
TTITLE9=OLD DEVIL MOON
EXTD=YEAR: 1957
EXTT0=
EXTT1=
EXTT2=
EXTT3=
EXTT4=
EXTT5=
EXTT6=
EXTT7=
EXTT8=
EXTT9=
PLAYORDER=
